<svg version="1.1" id="Layer_1" xmlns="http://www.w3.org/2000/svg" xmlns:xlink="http://www.w3.org/1999/xlink" x="0px" y="0px"
	 width="100%" viewBox="0 0 429 428" enable-background="new 0 0 429 428" xml:space="preserve">
<path fill="#FFFFFF" opacity="1.000000" stroke="none" 
	d="
M430.000000,170.000000 
	C430.000000,256.666656 430.000000,342.833313 430.000000,429.000000 
	C287.000031,429.000000 144.000061,429.000000 1.000062,429.000000 
	C1.000041,286.333374 1.000041,143.666748 1.000021,1.000100 
	C143.999939,1.000067 286.999878,1.000067 429.999908,1.000033 
	C430.000000,57.166668 430.000000,113.333336 430.000000,170.000000 
M254.500000,425.000000 
	C312.245483,425.000000 369.990997,425.000000 427.736938,425.000000 
	C427.736938,283.990173 427.736938,143.738205 427.736938,3.494270 
	C286.702118,3.494270 145.942505,3.494270 5.302883,3.494270 
	C5.302883,144.096970 5.302883,284.348724 5.302883,425.000000 
	C88.249039,425.000000 170.874527,425.000000 254.500000,425.000000 
z"/>
<path fill="#69AB8A" opacity="1.000000" stroke="none" 
	d="
M254.000000,425.000000 
	C170.874527,425.000000 88.249039,425.000000 5.302883,425.000000 
	C5.302883,284.348724 5.302883,144.096970 5.302883,3.494270 
	C145.942505,3.494270 286.702118,3.494270 427.736938,3.494270 
	C427.736938,143.738205 427.736938,283.990173 427.736938,425.000000 
	C369.990997,425.000000 312.245483,425.000000 254.000000,425.000000 
z"/>
</svg>